<?xml version="1.0" standalone="no"?>
<!DOCTYPE svg PUBLIC "-//W3C//DTD SVG 20010904//EN"
 "http://www.w3.org/TR/2001/REC-SVG-20010904/DTD/svg10.dtd">
<svg version="1.0" xmlns="http://www.w3.org/2000/svg"
 width="500.000000pt" height="500.000000pt" viewBox="0 0 500.000000 500.000000"
 preserveAspectRatio="xMidYMid meet">

<g transform="translate(0.000000,500.000000) scale(0.100000,-0.100000)"
fill="#000000" stroke="none">
<path d="M1909 4359 c-69 -49 -99 -80 -140 -142 -63 -97 -84 -174 -83 -302 1
-130 25 -209 100 -333 44 -72 197 -276 216 -288 5 -3 -4 20 -20 53 -43 85 -79
185 -107 297 -46 181 -30 400 45 626 21 63 37 116 36 118 -2 1 -23 -12 -47
-29z"/>
<path d="M3044 4374 c27 -66 60 -171 77 -244 25 -111 36 -323 20 -415 -16 -91
-65 -240 -112 -345 l-39 -85 30 35 c17 19 62 76 100 126 208 274 250 493 137
723 -34 70 -126 171 -187 205 -33 19 -33 19 -26 0z"/>
<path d="M1444 4084 c-63 -140 -84 -224 -84 -339 0 -132 38 -238 125 -347 94
-120 282 -248 493 -336 87 -36 114 -52 118 -69 4 -14 16 -24 35 -28 33 -8 33
-5 15 -70 l-13 -50 -44 3 c-70 4 -265 56 -370 97 -118 47 -227 113 -303 185
-64 59 -147 178 -166 236 -34 103 -49 -114 -17 -236 25 -91 83 -203 132 -253
49 -49 163 -109 253 -132 79 -20 233 -34 373 -35 l107 0 -24 -92 -23 -93 210
-397 c116 -218 217 -402 225 -409 12 -10 18 -9 29 2 8 8 108 192 224 409 l210
396 -24 84 c-14 47 -25 88 -25 93 0 4 44 7 98 7 138 0 308 16 383 35 98 25
204 82 255 138 92 97 164 310 150 441 -7 67 -20 91 -31 55 -14 -46 -90 -165
-139 -218 -132 -139 -347 -243 -623 -300 -56 -12 -109 -21 -117 -21 -9 0 -20
20 -30 54 -9 30 -16 56 -16 59 0 3 15 8 34 11 25 5 36 13 38 27 2 17 30 33
124 73 140 60 232 113 342 196 132 99 203 192 247 323 51 152 22 352 -77 542
l-16 29 -7 -55 c-30 -232 -107 -448 -223 -624 -58 -88 -204 -239 -348 -361
l-111 -94 -333 0 -333 0 -71 58 c-110 89 -311 288 -366 363 -28 36 -70 107
-95 155 -70 138 -110 271 -153 513 l-7 45 -31 -70z m1340 -1178 c22 -73 21
-74 -21 -82 -21 -3 -89 -17 -150 -31 l-113 -24 -112 24 c-62 14 -132 28 -155
32 -24 4 -43 9 -43 13 0 3 7 32 16 64 l17 58 273 0 273 0 15 -54z m-514 -237
c-40 -22 -92 -55 -114 -72 -26 -21 -38 -26 -34 -15 4 9 12 36 18 60 6 24 13
49 15 56 3 8 32 12 97 12 l93 0 -75 -41z m579 4 c27 -103 34 -99 -65 -38 -49
30 -96 59 -104 64 -10 7 13 10 72 10 l87 1 10 -37z m-242 -4 c83 -22 249 -103
266 -130 7 -12 -35 -100 -163 -340 -95 -178 -174 -326 -176 -328 -2 -2 -4 94
-4 215 l1 219 32 20 c18 11 40 37 50 57 49 100 -54 207 -160 167 -100 -38
-108 -173 -13 -227 l30 -17 0 -220 c0 -216 0 -220 -18 -190 -10 17 -89 165
-177 329 -117 222 -156 303 -149 314 16 25 172 104 253 128 98 28 129 29 228
3z m-60 -191 c13 -12 23 -32 23 -45 0 -29 -42 -73 -68 -73 -33 0 -72 38 -72
71 0 61 71 90 117 47z"/>
<path d="M1260 2149 c-124 -7 -324 -36 -430 -64 l-55 -14 55 4 c30 3 129 12
220 21 190 19 438 14 590 -11 325 -53 586 -206 794 -465 36 -45 24 -23 -34 65
-54 80 -189 213 -270 266 -231 152 -511 216 -870 198z"/>
<path d="M3495 2148 c-389 -22 -719 -193 -902 -468 -45 -69 -49 -79 -12 -35
78 92 129 141 219 209 233 176 508 255 886 256 95 0 176 -6 479 -35 l50 -5
-50 15 c-161 47 -458 75 -670 63z"/>
<path d="M4228 2063 c7 -3 16 -2 19 1 4 3 -2 6 -13 5 -11 0 -14 -3 -6 -6z"/>
<path d="M930 2009 c-231 -18 -226 -27 16 -28 649 -3 1044 -109 1409 -378 l60
-45 -65 63 c-91 87 -248 188 -376 242 -311 131 -642 177 -1044 146z"/>
<path d="M3600 2010 c-373 -36 -769 -198 -955 -391 l-50 -52 51 40 c77 59 233
150 336 194 284 123 607 178 1072 180 l231 2 -95 13 c-127 17 -472 25 -590 14z"/>
<path d="M705 1921 c11 -5 54 -11 95 -15 123 -12 456 -55 585 -77 325 -53 617
-139 814 -238 85 -43 69 -24 -27 33 -256 150 -593 244 -1006 280 -192 17 -489
28 -461 17z"/>
<path d="M4050 1920 c-549 -25 -991 -138 -1276 -327 -64 -43 -71 -54 -11 -19
60 36 254 112 382 151 225 68 514 119 948 169 115 13 211 27 214 30 7 7 -13 6
-257 -4z"/>
<path d="M438 1912 c-21 -4 -30 -29 -18 -51 7 -14 201 -66 852 -229 464 -117
859 -217 879 -222 33 -9 37 -14 35 -42 -1 -25 6 -36 32 -54 48 -33 156 -54
275 -54 208 0 351 55 316 122 -8 14 -3 19 28 27 21 6 409 103 863 216 454 113
838 211 853 217 22 9 27 16 25 37 -2 21 -9 27 -33 29 -16 1 -484 -112 -1039
-252 l-1009 -253 -1021 256 c-561 142 -1028 255 -1038 253z"/>
<path d="M568 1013 c-14 -3 -16 -11 -11 -36 4 -18 12 -38 19 -45 7 -7 52 -62
99 -122 48 -61 91 -110 96 -110 5 0 9 60 9 142 0 112 3 145 15 158 14 15 12
16 -16 12 -18 -3 -26 -8 -20 -12 8 -4 11 -38 9 -99 l-3 -93 -85 106 c-47 58
-87 105 -90 105 -3 -1 -13 -3 -22 -6z"/>
<path d="M2850 1002 c-123 -61 -96 -281 36 -298 34 -4 36 -3 17 7 -58 30 -77
191 -30 260 17 26 32 35 62 40 l40 6 -45 2 c-26 0 -60 -7 -80 -17z"/>
<path d="M2996 989 c12 -13 26 -37 32 -54 10 -28 10 -26 11 25 1 41 -2 51 -11
42 -8 -8 -17 -8 -32 0 l-21 11 21 -24z"/>
<path d="M1113 961 c-71 -33 -100 -110 -70 -184 16 -37 67 -77 99 -77 14 0 13
4 -7 24 -42 43 -47 162 -8 215 31 40 80 36 111 -9 20 -30 23 -44 20 -102 -3
-50 -9 -75 -26 -98 -26 -35 -13 -40 34 -11 57 35 80 120 49 185 -31 65 -127
92 -202 57z"/>
<path d="M3420 970 c18 -5 40 -16 47 -26 15 -21 33 -80 33 -109 0 -36 -21 -96
-41 -116 -23 -23 -9 -25 31 -4 50 26 70 61 70 126 0 46 -5 63 -24 86 -25 30
-84 54 -127 52 -18 -1 -16 -3 11 -9z"/>
<path d="M1537 962 c6 -4 38 -64 71 -135 34 -70 65 -127 70 -127 5 0 16 18 25
40 8 22 12 38 8 35 -9 -5 -81 145 -81 169 0 8 6 17 13 19 6 3 -17 6 -53 6 -36
0 -60 -3 -53 -7z"/>
<path d="M1755 957 c14 -11 16 -21 11 -43 -9 -33 -7 -32 22 19 l21 37 -36 0
c-33 0 -35 -1 -18 -13z"/>
<path d="M2110 930 c-20 -40 -27 -67 -11 -40 7 10 19 -6 45 -64 38 -83 44
-111 24 -119 -7 -3 16 -6 51 -6 60 -1 63 0 49 17 -8 9 -39 70 -68 135 -29 64
-57 117 -61 117 -5 0 -18 -18 -29 -40z"/>
<path d="M3329 953 c-38 -24 -59 -65 -59 -118 0 -60 21 -98 64 -119 49 -23 63
-20 37 8 -45 47 -49 145 -10 214 21 36 10 41 -32 15z"/>
<path d="M3808 958 c8 -8 12 -50 12 -125 0 -96 -2 -113 -17 -122 -14 -8 0 -10
52 -10 39 0 63 3 55 6 -23 9 -30 24 -30 64 0 36 0 36 51 43 117 16 138 131 28
153 -32 6 -33 6 -16 -11 19 -20 23 -86 7 -117 -7 -12 -21 -19 -40 -19 l-30 0
0 63 c0 36 5 68 12 75 9 9 0 12 -42 12 -42 0 -51 -3 -42 -12z"/>
<path d="M4265 919 c64 -98 79 -132 71 -171 -5 -27 -13 -38 -29 -41 -12 -2 14
-5 58 -5 59 -1 74 2 57 9 -22 8 -23 14 -20 68 1 33 0 58 -3 56 -6 -4 -69 101
-69 115 0 5 6 11 13 13 6 3 -16 6 -50 6 l-62 1 34 -51z"/>
<path d="M4429 961 c9 -6 12 -20 9 -40 -2 -17 -3 -30 -2 -28 2 1 14 19 28 40
l25 37 -37 0 c-25 0 -33 -3 -23 -9z"/>
<path d="M3025 783 c-3 -16 -16 -39 -28 -52 l-22 -24 22 12 c18 9 24 8 32 -6
8 -14 10 -5 11 40 0 63 -4 72 -15 30z"/>
<path d="M2018 730 l-17 -30 42 1 c31 0 37 2 22 8 -11 4 -22 17 -25 29 -5 20
-6 20 -22 -8z"/>
<path d="M538 719 c-18 -18 -17 -19 30 -18 38 0 43 2 25 9 -13 5 -23 14 -23
20 0 15 -13 11 -32 -11z"/>
</g>
</svg>
